<svg width="580" height="400" xmlns="http://www.w3.org/2000/svg">
 <!-- Created with Method Draw - http://github.com/duopixel/Method-Draw/ -->

 <g>
  <title>background</title>
  <rect fill="#fff" id="canvas_background" height="402" width="582" y="-1" x="-1"/>
  <g display="none" overflow="visible" y="0" x="0" height="100%" width="100%" id="canvasGrid">
   <rect fill="url(#gridpattern)" stroke-width="0" height="400" width="580"/>
  </g>
 </g>
 <g>
  <title>Layer 1</title>
  <g transform="matrix(2.4605921606337375,0,0,2.4605921606337375,0,0) " id="svg_5">
   <g id="svg_6">
    <path id="svg_7" d="m103.617021,3.73617l0.369,0.088l0.021,0.24l-0.358,0.03l0.272,0.339c-0.139,0.415 -0.761,0.672 -1.864,0.769l-0.829,0.195l-0.088,0.37l0.12,-0.011c-0.19,0.59 -0.442,3.188 -0.758,7.796l0.377,1.536c0,0 0.001,0 0,0c-0.799,0.07 -0.6,0.053 -0.6,0.053l0.012,0.12l-0.241,0.021l-0.51,-0.316l-0.11,0.129l-0.118,0.011c-0.6,-0.542 -0.548,-1.449 -0.445,-2.181c0.12,-0.881 0.094,-1.724 0.093,-2.609c-0.003,-0.754 0.008,-1.51 0.079,-2.261c0.056,-0.582 0.077,-1.165 0.097,-1.748l-0.828,0.193l-1.688,0.029l-0.012,-0.12l0.589,-0.173l0.013,0.119l-0.152,-0.349l-0.119,0.011l-0.71,0.184l-0.382,-0.208l0.066,-0.609l-0.129,-0.109c-0.036,-0.399 0.426,-0.642 1.385,-0.727l6.448,-0.812zm-0.687,0.423l0.011,0.119l0.479,-0.042l-0.012,-0.12l-0.478,0.043z" fill="#F4A417"/>
    <path id="svg_8" d="m106.328021,7.69517c0.625,-0.044 1.225,0.103 1.795,0.436l-0.073,0.086l0.005,0.08c0.106,0.138 0.237,0.277 0.311,0.428c-0.059,0.016 -0.122,0.02 -0.187,0.01c0.228,0.275 0.328,0.905 0.325,1.701c0.014,-0.156 -0.001,-0.333 0.155,-0.414c0.008,0.361 -0.046,0.819 -0.154,1.167c-0.14,0.436 -0.308,0.86 -0.479,1.283l0.08,-0.007c-0.34,0.545 -0.865,1.063 -1.574,1.557l-0.396,0.108l-0.081,0.005c-1.264,0.087 -2.097,-0.362 -2.499,-1.35l-0.352,-0.457l0.072,-0.086c-0.111,-0.516 -0.2,-0.963 -0.019,-1.479c0.208,-0.587 0.591,-1.102 0.984,-1.577c-0.011,0.36 -0.287,0.66 -0.463,0.953c-0.162,0.272 -0.287,0.656 -0.346,0.967c0.174,-0.052 0.254,-0.603 0.333,-0.783c0.345,-0.77 0.987,-1.849 1.7,-2.325l-0.537,0.358l-0.079,0.006c-0.015,-0.245 0.477,-0.467 1.479,-0.667zm-2.942,3.817l0.043,0.641l0.08,-0.007l-0.044,-0.639l-0.079,0.005zm2.664,-2.45c-0.379,0.326 -0.754,0.705 -1.065,1.098c-0.4,0.509 -0.477,1.23 -0.603,1.845c0.03,0.427 0.296,0.782 0.798,1.067l0.08,-0.005c0.583,-0.041 1.204,-0.7 1.865,-1.976c0.229,-0.602 0.331,-1.037 0.312,-1.306c-0.017,-0.235 0.008,-0.6 -0.184,-0.776c-0.252,-0.228 -0.954,-0.163 -1.203,0.053z" fill="#F4A417"/>
    <path id="svg_9" d="m118.936021,3.92817c0.138,0.086 0.555,0.098 1.247,0.038l0.001,0.072l-0.515,0.046l0.004,0.074c0.613,-0.055 1.008,0.06 1.187,0.337l0.004,0.148l-0.366,0.032l0.004,0.073l0.514,0.029l0.002,0.072l-0.439,0.04l0.002,0.074c0.147,-0.014 0.221,0.029 0.226,0.127c-0.873,0.078 -1.622,0.464 -2.25,1.16l0.002,0.072c0.971,0.171 1.768,0.665 2.398,1.488l0.001,0.073c-0.123,0.649 -0.569,1.279 -1.342,1.892l-0.44,0.113l0.001,0.074l0.146,-0.013c0.007,0.133 -0.428,0.318 -1.306,0.559l-0.006,-0.146l0.367,-0.032l0.002,-0.075c-0.313,0.027 -0.612,-0.118 -0.894,-0.438c-0.229,-0.093 -0.357,-0.296 -0.386,-0.614c-0.002,-0.028 -0.004,-0.059 -0.002,-0.09l0.214,-0.167l0.226,0.127l0.146,-0.013c1.361,-0.338 2.034,-0.841 2.018,-1.509c-0.604,-0.242 -0.998,-0.354 -1.187,-0.338l0.003,0.073l-0.747,-0.229l0.075,0.066l0.01,0.146c-0.649,-0.394 -0.979,-0.71 -0.982,-0.947l0.481,-1.077l0.357,-0.326l0.005,0.147l1.219,-1.138z" fill="#F4A417"/>
    <path id="svg_10" d="m113.703021,8.10417l-0.008,-0.086l0.872,-1.432l0.096,-0.009l0.016,0.172l0.091,-0.094l0.097,-0.01c0.465,0.096 0.702,0.19 0.713,0.284l-0.245,0.308l0.194,-0.019c0.248,-0.14 0,0 0.155,-0.212l0.291,-0.025l0.009,0.085l-0.091,0.095l-0.061,0.094l0,0c-1.598,2.867 -2.591,5.702 -2.591,5.702l-1.695,5.285l0.104,0.077l0.007,0.086l-0.419,0.816l-0.785,-0.017l-0.06,-0.688l-0.323,-0.313l-0.015,-0.172l1.429,-5.546l0.07,-0.354l0.082,-0.358l-0.158,-0.68l0.091,-0.094l-0.009,-0.086l-1.607,-2.9l-0.016,-0.171l0.194,-0.019l0.012,-0.103l-0.012,0.103l0.174,-0.221c0.147,-0.014 0.137,-0.181 0.209,0.102l0.275,-0.197l0.294,-0.027c0.032,0.354 0.69,1.663 1.492,2.744c0.317,-0.66 0.443,-0.397 0.781,-1.416l0.097,-0.124m1.055,-1.659m-0.805,1.079l0.007,0.086l0.011,0.798l-0.118,-0.416l0.1,-0.468z" fill="#F4A417"/>
    <g id="svg_11">
     <path id="svg_12" d="m95.945021,18.79717c-0.066,0.018 -0.126,0.031 -0.126,0.031c0,0.007 0.002,0.013 0.004,0.018c0.044,-0.019 0.084,-0.033 0.122,-0.049z" fill="#F4A417"/>
     <path id="svg_13" d="m96.023021,18.57317c-0.015,0.003 -0.027,0.006 -0.04,0.01c0.005,0.002 0.008,0.007 0.01,0.011c0.009,-0.006 0.019,-0.015 0.03,-0.021z" fill="#F4A417"/>
     <path id="svg_14" d="m95.824021,18.84617c0.023,0.057 0.091,0.103 0.039,0.177c-0.068,0.019 -0.21,0.053 -0.279,0.07c-0.064,0.049 0.014,0.065 0.021,0.098c-0.068,0.018 -0.14,0.035 -0.136,0.053c-0.035,0.052 0.048,0.062 0.188,0.038c0.258,-0.258 1.018,-0.511 0.167,-0.436z" fill="#F4A417"/>
     <path id="svg_15" d="m96.356021,18.57817c-0.124,0.028 -0.25,0.06 -0.373,0.09c-0.03,0.047 -0.073,0.096 -0.026,0.126c0.187,-0.075 0.295,-0.135 0.399,-0.216z" fill="#F4A417"/>
     <path id="svg_16" d="m125.144021,11.47617c-0.003,-0.011 0.003,-0.018 0.071,-0.019c-0.024,0.008 -0.047,0.012 -0.071,0.019c0.003,0.009 0.009,0.021 -0.021,0.034c0.243,-0.077 0.525,-0.165 0.804,-0.238c0.031,-0.026 0.064,-0.052 0.091,-0.077c-0.688,0.179 -1.38,0.347 -1.925,0.57c0.4,-0.096 0.668,-0.192 1.051,-0.289z" fill="#F4A417"/>
     <path id="svg_17" d="m126.047021,11.08317c0.024,-0.006 0.047,-0.012 0.071,-0.018c-0.067,0.001 -0.072,0.008 -0.071,0.018z" fill="#F4A417"/>
     <path id="svg_18" d="m113.813021,14.45917c-0.422,0.116 -0.781,0.265 -1.148,0.41c0.792,-0.242 1.611,-0.466 2.208,-0.676c-0.35,0.09 -0.702,0.177 -1.06,0.266z" fill="#F4A417"/>
     <path id="svg_19" d="m110.833021,15.54517c0.538,-0.1 0.962,-0.245 1.365,-0.402c-0.421,0.117 -0.837,0.232 -1.252,0.349c-0.037,0.017 -0.075,0.033 -0.113,0.053z" fill="#F4A417"/>
     <path id="svg_20" d="m111.397021,15.30017c0.483,-0.116 0.877,-0.273 1.268,-0.431c-0.447,0.139 -0.886,0.281 -1.268,0.431z" fill="#F4A417"/>
     <path id="svg_21" d="m120.601021,11.47217c0.308,-0.125 0.495,-0.192 0.603,-0.225c0.044,-0.034 0.101,-0.077 0.179,-0.134c-0.02,0.004 -0.036,0.01 -0.056,0.014c-0.322,0.11 -0.648,0.218 -0.979,0.324c-0.13,0.054 -0.258,0.109 -0.361,0.161c0.206,-0.044 0.411,-0.091 0.614,-0.14z" fill="#F4A417"/>
     <path id="svg_22" d="m121.204021,11.24717c-0.366,0.297 0.422,-0.124 0,0l0,0z" fill="#F4A417"/>
     <path id="svg_23" d="m119.397021,12.77017c-0.015,0.003 -0.031,0.008 -0.048,0.012c-0.047,0.016 -0.093,0.031 -0.139,0.045c0.066,-0.019 0.125,-0.038 0.187,-0.057z" fill="#F4A417"/>
     <path id="svg_24" d="m115.351021,13.27117c0.276,-0.074 0.553,-0.154 0.825,-0.237c-0.563,0.155 -1.129,0.312 -1.592,0.475c0.069,-0.017 0.147,-0.017 0.216,-0.034c0.135,-0.069 0.337,-0.153 0.551,-0.204z" fill="#F4A417"/>
     <path id="svg_25" d="m121.565021,12.08017c-0.76,0.229 -1.5,0.466 -2.216,0.701c-1.48,0.368 -2.902,0.756 -4.154,1.201c-1.1,0.407 -3.084,0.857 -4.153,1.393c0.124,-0.023 0.241,-0.05 0.355,-0.075c-0.161,0.063 -0.313,0.125 -0.451,0.191c-1.853,0.513 -3.675,0.994 -5.583,1.458c-0.282,0.071 -0.482,0.171 -0.766,0.24c-0.286,0.073 -0.567,0.145 -0.845,0.216c0,0.005 0.005,0.008 0.012,0.009c-1.159,0.305 -2.297,0.616 -3.489,0.964c-0.562,0.155 -1.132,0.276 -1.696,0.413c-0.212,0.053 -0.228,-0.014 -0.371,0.006c-0.587,0.056 -1.026,0.095 -1.671,0.217c0,0 -0.008,-0.031 -0.011,-0.048c-0.099,0.03 -0.186,0.051 -0.258,0.063c0.26,-0.256 1.018,-0.511 0.167,-0.437l0,0c0.045,-0.017 0.086,-0.032 0.122,-0.046c0.005,0 0.008,-0.003 0.014,-0.003c0,0 0,-0.001 -0.001,-0.002c0.185,-0.075 0.295,-0.135 0.397,-0.216c-0.124,0.029 -0.247,0.061 -0.371,0.091c0.017,-0.028 0.027,-0.055 0.009,-0.073c0.008,-0.009 0.019,-0.016 0.029,-0.022c0.056,-0.013 0.102,-0.025 0.102,-0.025c0.014,-0.016 0.025,-0.032 0.031,-0.048c0.306,-0.148 0.808,-0.309 0.694,-0.354c-0.085,-0.015 -0.313,0.073 -0.576,0.158c-0.021,-0.002 -0.04,-0.003 -0.061,-0.003c0.35,-0.102 -0.027,-0.113 0.181,-0.181c0.282,-0.07 0.561,-0.153 0.844,-0.224c1.151,-0.279 2.116,-0.532 3.235,-0.858c0.049,-0.014 0.097,-0.026 0.147,-0.042c0.542,-0.152 1.06,-0.283 1.6,-0.402c-0.033,0.021 -0.065,0.038 -0.1,0.06c0.434,-0.096 0.866,-0.198 1.293,-0.328c1.045,-0.323 2.09,-0.648 3.216,-0.938c1.182,-0.304 2.313,-0.616 3.504,-0.964c-0.484,0.156 -0.967,0.309 -1.47,0.443c-0.224,0.054 -0.451,0.107 -0.671,0.166c0.23,-0.053 0.452,-0.107 0.671,-0.166c0.873,-0.206 1.772,-0.404 2.406,-0.72c0.076,-0.006 0.081,0.01 0.15,-0.007c0.495,-0.122 0.994,-0.226 1.402,-0.393c-0.005,-0.016 0.206,-0.068 0.129,-0.085c0.421,-0.117 0.916,-0.239 1.332,-0.375c0.178,-0.056 0.354,-0.131 0.528,-0.214c1.496,-0.457 2.975,-0.912 4.591,-1.394c0.4,-0.114 0.869,-0.229 1.279,-0.33c-0.59,0.202 -1.202,0.399 -1.824,0.594c-0.619,0.139 -1.206,0.282 -1.67,0.483c-0.109,0.041 -0.216,0.084 -0.328,0.126c0.674,-0.203 1.342,-0.403 1.998,-0.609c0.364,-0.082 0.737,-0.161 1.1,-0.249c-0.007,0.003 -0.012,0.005 -0.021,0.009c-0.281,0.089 -0.563,0.179 -0.85,0.271c-0.549,0.122 -1.074,0.25 -1.509,0.418c-0.054,0.021 -0.107,0.041 -0.158,0.064c-0.109,0.043 -0.219,0.085 -0.328,0.125c0.417,-0.124 0.828,-0.249 1.237,-0.374c0.254,-0.078 0.507,-0.155 0.758,-0.233c0.161,-0.037 0.324,-0.071 0.488,-0.109c-0.017,0.01 -0.033,0.018 -0.05,0.025c-0.137,0.053 -0.485,0.338 -0.262,0.336c0.545,-0.136 1.193,-0.314 1.704,-0.459c0.258,-0.073 0.482,-0.136 0.64,-0.18c0.08,-0.021 0.143,-0.038 0.188,-0.05c0.043,-0.012 0.066,-0.018 0.067,-0.016c0.086,0.049 -1.758,0.589 -1.682,0.588c0.106,-0.019 0.213,-0.038 0.316,-0.058c-0.096,0.036 -0.189,0.074 -0.275,0.112c-0.208,0.068 -0.495,0.119 -0.627,0.187c-0.472,0.219 -1.043,0.324 -1.594,0.528c-0.341,0.133 -0.749,0.303 -1.158,0.472c0.008,0.032 -0.209,0.067 -0.13,0.083c-0.398,0.096 -0.859,0.209 -1.008,0.346c-0.009,0.005 -0.018,0.007 -0.027,0.01c-0.03,0.006 -0.067,0.022 -0.107,0.039c-0.667,0.146 -1.109,0.349 -1.696,0.559c-0.205,0.059 -0.414,0.115 -0.631,0.169c0.142,-0.036 0.357,-0.07 0.495,-0.121c0.047,-0.017 0.092,-0.031 0.136,-0.048c0.53,-0.154 1.032,-0.319 1.533,-0.48c0.04,-0.02 0.104,-0.052 0.163,-0.078c0.035,-0.008 0.074,-0.016 0.11,-0.023c0.009,-0.008 0.016,-0.018 0.024,-0.025c0.478,-0.166 1.025,-0.317 1.429,-0.466c0.772,-0.247 1.612,-0.425 2.416,-0.61c-0.393,0.125 -0.778,0.25 -1.154,0.375c0.477,-0.146 0.923,-0.284 1.358,-0.422c0.066,-0.017 0.136,-0.034 0.203,-0.049l0.425,-0.104c-0.136,0.026 -0.269,0.053 -0.399,0.078c0.258,-0.082 0.515,-0.165 0.767,-0.249c1.399,-0.422 2.851,-0.819 4.292,-1.145c-0.023,0.026 -0.05,0.055 -0.082,0.083c-0.689,0.179 -1.38,0.347 -1.925,0.571c0.399,-0.097 0.668,-0.192 1.052,-0.29c0.002,0.01 0.01,0.021 -0.021,0.036c0.243,-0.079 0.525,-0.166 0.806,-0.24c-0.08,0.064 -0.171,0.13 -0.261,0.197c-0.134,0.066 -0.345,0.118 -0.555,0.186c-0.91,0.253 -1.776,0.454 -2.669,0.715c-0.807,0.191 -1.612,0.381 -2.4,0.576c0.775,-0.239 1.483,-0.46 2.17,-0.691zm-23.607,6.212c0.07,-0.025 0.146,-0.051 0.216,-0.078c-0.011,-0.001 -0.023,-0.001 -0.036,-0.003c-0.069,0.017 -0.132,0.05 -0.18,0.081zm1.657,-0.388c-0.493,0.09 -1.121,0.282 -1.734,0.458c-0.001,0.007 -0.002,0.012 -0.001,0.016c0.521,-0.111 1.148,-0.306 1.735,-0.474zm2.018,-0.135c-0.002,0 -0.007,0 -0.011,-0.003c0,0.003 0.002,0.005 0.002,0.008c0.005,-0.003 0.008,-0.004 0.009,-0.005zm8.488,-2.62c-0.548,0.221 -1.255,0.392 -1.953,0.597c-0.212,0.052 -0.407,0.167 -0.69,0.236c-0.35,0.104 -0.553,0.188 -0.832,0.273l0.221,-0.021c-0.499,0.105 -0.76,0.271 -1.262,0.359c0.008,0.017 -0.058,0.065 -0.128,0.083c-0.349,0.104 -0.711,0.157 -0.985,0.258c-0.349,0.104 -0.701,0.189 -0.979,0.29c-0.07,0.018 -0.199,0.103 -0.336,0.151c-0.172,0.048 -0.345,0.095 -0.515,0.143c0.008,0.002 0.017,0.004 0.024,0.008c0.141,-0.034 0.282,-0.071 0.421,-0.116c0.417,-0.136 0.903,-0.29 1.324,-0.409c1.053,-0.292 2.024,-0.599 3,-0.904c0.205,-0.068 0.412,-0.152 0.618,-0.221c0.623,-0.219 1.403,-0.394 1.798,-0.61c0.067,-0.033 0.209,-0.067 0.274,-0.117zm0.616,-0.897c-0.729,0.251 -1.546,0.484 -2.251,0.642c-0.567,0.14 -2.17,0.632 -1.84,0.759c0.615,-0.526 4.673,-1.149 4.091,-1.401zm5.823,-1.737c-0.293,0.099 -0.572,0.191 -0.907,0.273c0.301,-0.091 0.605,-0.182 0.907,-0.273zm-2.85,1.395c0.891,-0.336 1.877,-0.595 2.779,-0.885c0.693,-0.221 1.491,-0.329 2.1,-0.597l-0.012,-0.049l-0.066,0.034c-0.25,0.051 -0.456,0.074 -0.669,0.11c0.013,-0.004 0.025,-0.009 0.036,-0.014c-0.021,0.008 -0.041,0.013 -0.062,0.019c-0.142,0.026 -0.287,0.059 -0.448,0.112c-0.074,0.025 -0.15,0.052 -0.226,0.079c-0.877,0.243 -1.783,0.491 -2.558,0.788c-0.482,0.169 -0.888,0.354 -1.369,0.525c0.142,-0.034 0.358,-0.069 0.495,-0.122z" fill="#F4A417"/>
     <path id="svg_26" d="m120.252021,12.36017c0.3,-0.095 0.603,-0.188 0.909,-0.28c0.234,-0.078 0.468,-0.159 0.699,-0.24c1.113,-0.363 2.444,-0.658 3.656,-0.993c0.022,-0.057 0.014,-0.106 -0.04,-0.147c-1.338,0.271 -2.64,0.68 -3.968,0.977c-0.01,0.003 -0.021,0.006 -0.031,0.013c-0.541,0.234 -1.467,0.428 -2.155,0.681c-0.684,0.27 -1.38,0.475 -2.067,0.729c1.02,-0.25 1.982,-0.523 2.997,-0.74z" fill="#F4A417"/>
     <path id="svg_27" d="m112.198021,15.14317c0.274,-0.077 0.551,-0.156 0.828,-0.234c0.771,-0.229 1.451,-0.446 2.145,-0.679c-0.519,0.136 -1.039,0.27 -1.564,0.397c-0.525,0.146 -0.952,0.338 -1.409,0.516z" fill="#F4A417"/>
     <path id="svg_28" d="m115.732021,14.04217c-0.188,0.063 -0.376,0.126 -0.562,0.188c0.767,-0.199 1.527,-0.407 2.285,-0.613c1.238,-0.373 2.479,-0.736 3.713,-1.127c0.141,-0.044 0.281,-0.086 0.42,-0.126c-2.34,0.552 -4.671,1.102 -6.603,1.789c-0.036,0.012 -0.075,0.027 -0.113,0.041c0.94,-0.241 1.868,-0.493 2.792,-0.746c-0.646,0.194 -1.288,0.388 -1.932,0.594z" fill="#F4A417"/>
     <path id="svg_29" d="m119.962021,12.45117c0.068,-0.016 0.136,-0.03 0.204,-0.047c0.077,-0.025 0.152,-0.05 0.229,-0.075c-0.048,0.01 -0.096,0.021 -0.143,0.031c-0.098,0.032 -0.194,0.061 -0.29,0.091z" fill="#F4A417"/>
     <path id="svg_30" d="m117.842021,12.52317c-0.007,0.002 -0.017,0.003 -0.025,0.005c-0.223,0.063 -0.446,0.126 -0.674,0.191c-0.311,0.106 -0.634,0.21 -0.966,0.313c0.605,-0.166 1.207,-0.335 1.665,-0.509z" fill="#F4A417"/>
     <path id="svg_31" d="m115.787021,12.61317c-0.068,0.019 -0.21,0.051 -0.281,0.067c-0.04,0.021 -0.081,0.042 -0.122,0.062c0.068,-0.014 0.135,-0.031 0.202,-0.046l0.201,-0.083z" fill="#F4A417"/>
     <path id="svg_32" d="m111.682021,13.89517c1.235,-0.37 2.396,-0.724 3.542,-1.073c0.054,-0.026 0.107,-0.053 0.16,-0.079c-0.781,0.181 -1.555,0.393 -2.249,0.656c-0.136,0.051 -0.336,0.151 -0.479,0.186c-0.666,0.178 -1.288,0.386 -1.911,0.587c0.297,-0.089 0.602,-0.178 0.911,-0.271c0.009,-0.003 0.017,-0.005 0.026,-0.006z" fill="#F4A417"/>
    </g>
   </g>
   <g id="svg_33">
    <g id="svg_34">
     <path id="svg_35" d="m6.611358,9.169633l-1.216,0.71l0,-2.671l-1.978,0.173l0,16.926l1.979,-0.175l0,-12.935c0.218,0.626 0.406,1.286 0.563,1.981l1.836,-0.966c-0.329,-1.129 -0.723,-2.144 -1.184,-3.043z" fill="#10529B"/>
     <path id="svg_36" d="m7.794358,23.923633l2.015,-0.177l0,-2.487l5.484,-0.479c-0.086,0.384 -0.34,0.597 -0.764,0.634c-0.497,0.043 -1.054,0.042 -1.67,-0.001l0.453,2.026l1.217,-0.104c1.89,-0.166 2.833,-1.029 2.833,-2.591l0,-6.44l-9.568,0.837l0,8.782zm2.014,-7.056l5.521,-0.483l0,0.44l-5.521,0.482l0,-0.439zm0,2.195l5.521,-0.482l0,0.421l-5.521,0.482l0,-0.421z" fill="#10529B"/>
     <path id="svg_37" d="m0.819358,15.970633l1.672,0.713c0.423,-1.695 0.689,-3.523 0.798,-5.485l-1.67,-0.273c-0.121,1.643 -0.388,3.326 -0.8,5.045z" fill="#10529B"/>
     <path id="svg_38" d="m13.512358,12.299633l-0.001,-0.513l3.651,-0.319l0,-1.831l-3.65,0.32l-0.001,-0.605l4.378,-0.382l0,-0.953l-0.002,0l0.001,0c-0.001,-0.525 -0.423,-0.913 -0.943,-0.866l-1.948,0.169l0,0l-1.484,0.132l-0.001,-0.952l-2.106,0.183l0,0.951l-4.121,0.36l-0.001,1.903l4.122,-0.36l0,0.604l-3.396,0.297l-0.001,1.83l3.396,-0.296l0,0.512l-4.267,0.374l0,1.901l10.968,-0.96l0,-1.902l-4.594,0.403z" fill="#10529B"/>
    </g>
    <g id="svg_39">
     <path id="svg_40" d="m32.702537,19.485633c-2.492,0.22 -4.486,0.318 -5.974,0.303c-0.908,-0.019 -1.719,-0.174 -2.434,-0.465l0,-3.185l1.598,-0.139l0,-1.848l-1.599,0.14l0.001,-1.684l1.797,-0.157l0,-1.809l-2.015,0.177l0,-1.759l1.67,-0.146l0,-1.848l-1.67,0.146l0,-1.683l-1.889,0.165l0,1.684l-1.725,0.149l0,1.849l1.725,-0.15l0,1.756l-2.252,0.197l0,1.811l2.47,-0.216l0,5.288c-0.157,-0.155 -0.314,-0.332 -0.472,-0.526c0.072,-1.02 0.108,-2.149 0.108,-3.395l-1.798,0.156c-0.035,1.956 -0.133,3.521 -0.289,4.693c-0.158,1.074 -0.382,2.028 -0.673,2.857l1.688,0.877c0.278,-0.816 0.497,-1.732 0.654,-2.747c0.436,0.402 0.906,0.745 1.41,1.03c0.887,0.447 1.937,0.701 3.147,0.768c1.488,0.102 3.661,0.025 6.518,-0.224l3.56,-0.311l0.655,-2.328c-1.195,0.242 -2.6,0.434 -4.211,0.574z" fill="#10529B"/>
     <path id="svg_41" d="m26.401537,16.633633c-0.326,0.065 -0.672,0.139 -1.034,0.219l0.309,1.784c1.367,-0.326 2.651,-0.682 3.85,-1.068l0,1.921l1.798,-0.156l0,-1.813l0.744,1.363c0.884,-0.675 1.671,-1.694 2.36,-3.061c0.34,0.581 0.66,1.193 0.962,1.837l1.454,-1.609c-0.46,-0.84 -0.957,-1.667 -1.488,-2.486c0.435,-1.32 0.815,-2.993 1.143,-5.022l0,-0.42l-0.001,-0.003l0,0c0,-0.521 -0.42,-0.91 -0.937,-0.867l0,0l-0.004,0l-0.002,0l-1.949,0.169l0,0l-1.92,0.168l0.001,1.812l2.85,-0.249c-0.133,0.901 -0.297,1.739 -0.49,2.512c-0.363,-0.492 -0.757,-0.987 -1.182,-1.489l-1.396,1.239c0.642,0.799 1.252,1.647 1.833,2.549c-0.52,1.276 -1.181,2.281 -1.979,3.009l0,-9.881l1.181,-0.104l0,-0.863l0,0c0,-0.524 -0.422,-0.912 -0.943,-0.868l-1.948,0.171l0,0.001l-3.72,0.325l0,1.813l0.508,-0.045l0,9.112zm1.817,-9.272l1.308,-0.113l0,1.608l-1.308,0.115l0,-1.61zm0,3.441l1.307,-0.115l0,1.776l-1.307,0.113l0,-1.774zm0,3.585l1.307,-0.114l0,1.52c-0.411,0.122 -0.847,0.245 -1.307,0.372l0,-1.778z" fill="#10529B"/>
    </g>
    <path id="svg_42" d="m67.886298,13.776152c-0.727,-0.766 -1.332,-1.676 -1.815,-2.731l6.592,-0.577l0.001,-2.142l-6.738,0.59c0.025,-0.49 0.037,-1.631 0.035,-3.425l5.977,-0.522l-0.002,-1.19l0,-0.001c-0.001,-0.522 -0.42,-0.911 -0.939,-0.867l0,0l-0.004,0l-1.949,0.171l-10.855,0.949l0,2.141l5.594,-0.488c0.001,1.901 -0.017,2.902 -0.054,3.006c0,0.145 -0.006,0.287 -0.019,0.421l-6.319,0.553l0,2.142l6.083,-0.531c-0.241,1.19 -0.702,2.231 -1.379,3.12c-1.137,1.479 -2.846,2.727 -5.121,3.743l0.944,1.966c2.492,-1.084 4.449,-2.488 5.865,-4.208c0.544,-0.695 0.986,-1.46 1.326,-2.295c0.593,1.144 1.324,2.099 2.195,2.864c1.066,1.005 2.61,1.905 4.633,2.705l1.307,-2.182c-2.337,-0.714 -4.122,-1.783 -5.358,-3.212z" fill="#10529B"/>
    <g id="svg_43">
     <path id="svg_44" d="m85.337298,14.188332l5.685,-0.496l0,-2.068l-5.685,0.498l0,-0.86l4.431,-0.389l0,-4.412l0,0c-0.001,-0.521 -0.422,-0.907 -0.939,-0.866l0,-0.001l-10.083,0.883l0.002,5.361l4.5,-0.395l0.001,0.86l-5.899,0.517l0,2.067l5.899,-0.517l-0.001,0.951l-6.971,0.61l0,2.05l15.962,-1.396l0,-2.049l-6.901,0.604l0,-0.952l-0.001,0zm-4.484,-4.529l0,-1.371l6.81,-0.597l-0.001,1.372l-6.809,0.596z" fill="#10529B"/>
     <path id="svg_45" d="m92.473298,3.366332c0,-0.521 -0.422,-0.91 -0.942,-0.864l-1.947,0.171l0,0.003l-0.541,0.047c0.374,-0.559 0.744,-1.176 1.106,-1.854l-2.414,-0.447c-0.352,0.873 -0.763,1.714 -1.235,2.524l-1.234,0.107l0,-2.562l-2.088,0.183l0,2.562l-2.233,0.195l0.854,-0.568c-0.425,-0.634 -0.957,-1.229 -1.599,-1.782l-1.905,1.356c0.423,0.364 0.793,0.743 1.107,1.129l-3.358,0.293l0,4.118l2.105,-0.186l0,-2.065l12.22,-1.07l0,2.068l2.105,-0.186l0,-3.172l-0.001,0z" fill="#10529B"/>
    </g>
    <g id="svg_46">
     <path id="svg_47" d="m43.709761,7.554331l2.127,-0.186l-0.001,-0.805l3.468,-0.305l0,0.806l2.105,-0.185l0,-0.805l3.995,-0.35l0,-0.804l0,0l0,0c0,-0.525 -0.422,-0.913 -0.942,-0.868l-1.947,0.171l-1.104,0.096l-0.001,-0.731l-2.105,0.186l-0.001,0.73l-3.467,0.303l0,-0.73l-2.125,0.187l0,0.731l-4.194,0.366l0,1.758l4.193,-0.367l0,0.802l-0.001,0z" fill="#10529B"/>
     <path id="svg_48" d="m55.714761,12.592331c-0.002,-0.521 -0.42,-0.907 -0.938,-0.865l0,0l-0.007,0.001l-1.946,0.17l-13.544,1.185l0,3.13l2.034,-0.178l0.001,-1.318l3.557,-0.311c-0.373,0.301 -0.816,0.602 -1.324,0.902c-1.126,0.696 -2.204,1.235 -3.232,1.618l0.999,1.742c0.473,-0.199 0.992,-0.459 1.562,-0.776c0.46,0.252 0.907,0.536 1.344,0.852c-1.174,0.336 -2.5,0.664 -3.976,0.989l0.799,1.759c3.123,-0.759 5.695,-1.571 7.715,-2.432c1.89,-0.787 3.355,-1.721 4.396,-2.8l0,-1.775l-6.52,0.571c0.266,-0.268 0.533,-0.56 0.799,-0.875l6.246,-0.548l0,1.319l2.035,-0.179l0,-2.181l0,0zm-5.685,3.87c-0.604,0.369 -1.374,0.747 -2.306,1.135c-0.266,0.108 -0.568,0.221 -0.908,0.336c-0.471,-0.361 -1.005,-0.712 -1.597,-1.05l4.811,-0.421z" fill="#10529B"/>
     <path id="svg_49" d="m53.590761,6.926331l0,0l-1.948,0.17l-11.254,0.985l0,4.538l14.145,-1.238l-0.001,-3.583l-0.003,-0.003l0.003,0c0,-0.525 -0.422,-0.912 -0.942,-0.869zm-9.153,3.566l-2.106,0.185l0,-1.008l2.106,-0.185l0,1.008zm4.157,-0.365l-2.269,0.198l0,-1.005l2.269,-0.198l0,1.005zm3.995,-0.349l-2.104,0.184l0,-1.006l2.104,-0.184l0,1.006z" fill="#10529B"/>
    </g>
   </g>
  </g>
  <g id="svg_50"/>
 </g>
</svg>