<?xml version="1.0" encoding="utf-8"?>
<!-- Generator: Adobe Illustrator 16.0.0, SVG Export Plug-In . SVG Version: 6.00 Build 0)  -->
<!DOCTYPE svg PUBLIC "-//W3C//DTD SVG 1.1//EN" "http://www.w3.org/Graphics/SVG/1.1/DTD/svg11.dtd">
<svg version="1.1" id="圖層_1" xmlns="http://www.w3.org/2000/svg" xmlns:xlink="http://www.w3.org/1999/xlink" x="0px" y="0px"
	 width="85px" height="46.553px" viewBox="0 0 85 46.553" enable-background="new 0 0 85 46.553" xml:space="preserve">
<g>
	<g>
		<path fill="#F4A417" d="M54.956,4.153l0.369,0.088l0.021,0.24l-0.358,0.03L55.26,4.85c-0.139,0.415-0.761,0.672-1.864,0.769
			l-0.829,0.195l-0.088,0.37l0.12-0.011c-0.19,0.59-0.442,3.188-0.758,7.796l0.377,1.536c0,0,0.001,0,0,0
			c-0.799,0.07-0.6,0.053-0.6,0.053l0.012,0.12l-0.241,0.021l-0.51-0.316l-0.11,0.129l-0.118,0.011
			c-0.6-0.542-0.548-1.449-0.445-2.181c0.12-0.881,0.094-1.724,0.093-2.609c-0.003-0.754,0.008-1.51,0.079-2.261
			c0.056-0.582,0.077-1.165,0.097-1.748l-0.828,0.193l-1.688,0.029l-0.012-0.12l0.589-0.173l0.013,0.119l-0.152-0.349l-0.119,0.011
			l-0.71,0.184L47.186,6.41l0.066-0.609l-0.129-0.109c-0.036-0.399,0.426-0.642,1.385-0.727L54.956,4.153z M54.269,4.576
			l0.011,0.119l0.479-0.042l-0.012-0.12L54.269,4.576z"/>
		<path fill="#F4A417" d="M57.667,8.112c0.625-0.044,1.225,0.103,1.795,0.436l-0.073,0.086l0.005,0.08
			c0.106,0.138,0.237,0.277,0.311,0.428c-0.059,0.016-0.122,0.02-0.187,0.01c0.228,0.275,0.328,0.905,0.325,1.701
			c0.014-0.156-0.001-0.333,0.155-0.414c0.008,0.361-0.046,0.819-0.154,1.167c-0.14,0.436-0.308,0.86-0.479,1.283l0.08-0.007
			c-0.34,0.545-0.865,1.063-1.574,1.557l-0.396,0.108l-0.081,0.005c-1.264,0.087-2.097-0.362-2.499-1.35l-0.352-0.457l0.072-0.086
			c-0.111-0.516-0.2-0.963-0.019-1.479c0.208-0.587,0.591-1.102,0.984-1.577c-0.011,0.36-0.287,0.66-0.463,0.953
			c-0.162,0.272-0.287,0.656-0.346,0.967c0.174-0.052,0.254-0.603,0.333-0.783c0.345-0.77,0.987-1.849,1.7-2.325l-0.537,0.358
			l-0.079,0.006C56.173,8.534,56.665,8.312,57.667,8.112z M54.725,11.929l0.043,0.641l0.08-0.007l-0.044-0.639L54.725,11.929z
			 M57.389,9.479c-0.379,0.326-0.754,0.705-1.065,1.098c-0.4,0.509-0.477,1.23-0.603,1.845c0.03,0.427,0.296,0.782,0.798,1.067
			l0.08-0.005c0.583-0.041,1.204-0.7,1.865-1.976c0.229-0.602,0.331-1.037,0.312-1.306c-0.017-0.235,0.008-0.6-0.184-0.776
			C58.34,9.198,57.638,9.263,57.389,9.479z"/>
		<path fill="#F4A417" d="M70.275,4.345c0.138,0.086,0.555,0.098,1.247,0.038l0.001,0.072l-0.515,0.046l0.004,0.074
			c0.613-0.055,1.008,0.06,1.187,0.337l0.004,0.148l-0.366,0.032l0.004,0.073l0.514,0.029l0.002,0.072l-0.439,0.04l0.002,0.074
			c0.147-0.014,0.221,0.029,0.226,0.127c-0.873,0.078-1.622,0.464-2.25,1.16l0.002,0.072c0.971,0.171,1.768,0.665,2.398,1.488
			l0.001,0.073c-0.123,0.649-0.569,1.279-1.342,1.892l-0.44,0.113l0.001,0.074l0.146-0.013c0.007,0.133-0.428,0.318-1.306,0.559
			l-0.006-0.146l0.367-0.032l0.002-0.075c-0.313,0.027-0.612-0.118-0.894-0.438c-0.229-0.093-0.357-0.296-0.386-0.614
			c-0.002-0.028-0.004-0.059-0.002-0.09l0.214-0.167l0.226,0.127l0.146-0.013c1.361-0.338,2.034-0.841,2.018-1.509
			c-0.604-0.242-0.998-0.354-1.187-0.338l0.003,0.073l-0.747-0.229l0.075,0.066l0.01,0.146c-0.649-0.394-0.979-0.71-0.982-0.947
			l0.481-1.077l0.357-0.326l0.005,0.147L70.275,4.345z"/>
		<path fill="#F4A417" d="M65.042,8.521l-0.008-0.086l0.872-1.432l0.096-0.009l0.016,0.172l0.091-0.094l0.097-0.01
			c0.465,0.096,0.702,0.19,0.713,0.284l-0.245,0.308l0.194-0.019c0.248-0.14,0,0,0.155-0.212l0.291-0.025l0.009,0.085l-0.091,0.095
			l-0.061,0.094l0,0c-1.598,2.867-2.591,5.702-2.591,5.702l-1.695,5.285l0.104,0.077l0.007,0.086l-0.419,0.816l-0.785-0.017
			l-0.06-0.688l-0.323-0.313l-0.015-0.172l1.429-5.546l0.07-0.354l0.082-0.358l-0.158-0.68l0.091-0.094l-0.009-0.086l-1.607-2.9
			l-0.016-0.171l0.194-0.019l0.012-0.103l-0.012,0.103l0.174-0.221c0.147-0.014,0.137-0.181,0.209,0.102l0.275-0.197l0.294-0.027
			c0.032,0.354,0.69,1.663,1.492,2.744c0.317-0.66,0.443-0.397,0.781-1.416l0.097-0.124 M65.847,7.442 M65.042,8.521l0.007,0.086
			l0.011,0.798l-0.118-0.416L65.042,8.521z"/>
		<g>
			<path fill="#F4A417" d="M47.284,19.214c-0.066,0.018-0.126,0.031-0.126,0.031c0,0.007,0.002,0.013,0.004,0.018
				C47.206,19.244,47.246,19.23,47.284,19.214z"/>
			<path fill="#F4A417" d="M47.362,18.99c-0.015,0.003-0.027,0.006-0.04,0.01c0.005,0.002,0.008,0.007,0.01,0.011
				C47.341,19.005,47.351,18.996,47.362,18.99z"/>
			<path fill="#F4A417" d="M47.163,19.263c0.023,0.057,0.091,0.103,0.039,0.177c-0.068,0.019-0.21,0.053-0.279,0.07
				c-0.064,0.049,0.014,0.065,0.021,0.098c-0.068,0.018-0.14,0.035-0.136,0.053c-0.035,0.052,0.048,0.062,0.188,0.038
				C47.254,19.441,48.014,19.188,47.163,19.263z"/>
			<path fill="#F4A417" d="M47.695,18.995c-0.124,0.028-0.25,0.06-0.373,0.09c-0.03,0.047-0.073,0.096-0.026,0.126
				C47.483,19.136,47.591,19.076,47.695,18.995z"/>
			<path fill="#F4A417" d="M76.483,11.893c-0.003-0.011,0.003-0.018,0.071-0.019C76.53,11.882,76.507,11.886,76.483,11.893
				c0.003,0.009,0.009,0.021-0.021,0.034c0.243-0.077,0.525-0.165,0.804-0.238c0.031-0.026,0.064-0.052,0.091-0.077
				c-0.688,0.179-1.38,0.347-1.925,0.57C75.832,12.086,76.1,11.99,76.483,11.893z"/>
			<path fill="#F4A417" d="M77.386,11.5c0.024-0.006,0.047-0.012,0.071-0.018C77.39,11.483,77.385,11.49,77.386,11.5z"/>
			<path fill="#F4A417" d="M65.152,14.876c-0.422,0.116-0.781,0.265-1.148,0.41c0.792-0.242,1.611-0.466,2.208-0.676
				C65.862,14.7,65.51,14.787,65.152,14.876z"/>
			<path fill="#F4A417" d="M62.172,15.962c0.538-0.1,0.962-0.245,1.365-0.402c-0.421,0.117-0.837,0.232-1.252,0.349
				C62.248,15.926,62.21,15.942,62.172,15.962z"/>
			<path fill="#F4A417" d="M62.736,15.717c0.483-0.116,0.877-0.273,1.268-0.431C63.557,15.425,63.118,15.567,62.736,15.717z"/>
			<path fill="#F4A417" d="M71.94,11.889c0.308-0.125,0.495-0.192,0.603-0.225c0.044-0.034,0.101-0.077,0.179-0.134
				c-0.02,0.004-0.036,0.01-0.056,0.014c-0.322,0.11-0.648,0.218-0.979,0.324c-0.13,0.054-0.258,0.109-0.361,0.161
				C71.532,11.985,71.737,11.938,71.94,11.889z"/>
			<path fill="#F4A417" d="M72.543,11.664C72.177,11.961,72.965,11.54,72.543,11.664L72.543,11.664z"/>
			<path fill="#F4A417" d="M70.736,13.187c-0.015,0.003-0.031,0.008-0.048,0.012c-0.047,0.016-0.093,0.031-0.139,0.045
				C70.615,13.225,70.674,13.206,70.736,13.187z"/>
			<path fill="#F4A417" d="M66.69,13.688c0.276-0.074,0.553-0.154,0.825-0.237c-0.563,0.155-1.129,0.312-1.592,0.475
				c0.069-0.017,0.147-0.017,0.216-0.034C66.274,13.823,66.476,13.739,66.69,13.688z"/>
			<path fill="#F4A417" d="M72.904,12.497c-0.76,0.229-1.5,0.466-2.216,0.701c-1.48,0.368-2.902,0.756-4.154,1.201
				c-1.1,0.407-3.084,0.857-4.153,1.393c0.124-0.023,0.241-0.05,0.355-0.075c-0.161,0.063-0.313,0.125-0.451,0.191
				c-1.853,0.513-3.675,0.994-5.583,1.458c-0.282,0.071-0.482,0.171-0.766,0.24c-0.286,0.073-0.567,0.145-0.845,0.216
				c0,0.005,0.005,0.008,0.012,0.009c-1.159,0.305-2.297,0.616-3.489,0.964c-0.562,0.155-1.132,0.276-1.696,0.413
				c-0.212,0.053-0.228-0.014-0.371,0.006c-0.587,0.056-1.026,0.095-1.671,0.217c0,0-0.008-0.031-0.011-0.048
				c-0.099,0.03-0.186,0.051-0.258,0.063c0.26-0.256,1.018-0.511,0.167-0.437l0,0c0.045-0.017,0.086-0.032,0.122-0.046
				c0.005,0,0.008-0.003,0.014-0.003c0,0,0-0.001-0.001-0.002c0.185-0.075,0.295-0.135,0.397-0.216
				c-0.124,0.029-0.247,0.061-0.371,0.091c0.017-0.028,0.027-0.055,0.009-0.073c0.008-0.009,0.019-0.016,0.029-0.022
				c0.056-0.013,0.102-0.025,0.102-0.025c0.014-0.016,0.025-0.032,0.031-0.048c0.306-0.148,0.808-0.309,0.694-0.354
				c-0.085-0.015-0.313,0.073-0.576,0.158c-0.021-0.002-0.04-0.003-0.061-0.003c0.35-0.102-0.027-0.113,0.181-0.181
				c0.282-0.07,0.561-0.153,0.844-0.224c1.151-0.279,2.116-0.532,3.235-0.858c0.049-0.014,0.097-0.026,0.147-0.042
				c0.542-0.152,1.06-0.283,1.6-0.402c-0.033,0.021-0.065,0.038-0.1,0.06c0.434-0.096,0.866-0.198,1.293-0.328
				c1.045-0.323,2.09-0.648,3.216-0.938c1.182-0.304,2.313-0.616,3.504-0.964c-0.484,0.156-0.967,0.309-1.47,0.443
				c-0.224,0.054-0.451,0.107-0.671,0.166c0.23-0.053,0.452-0.107,0.671-0.166c0.873-0.206,1.772-0.404,2.406-0.72
				c0.076-0.006,0.081,0.01,0.15-0.007c0.495-0.122,0.994-0.226,1.402-0.393c-0.005-0.016,0.206-0.068,0.129-0.085
				c0.421-0.117,0.916-0.239,1.332-0.375c0.178-0.056,0.354-0.131,0.528-0.214c1.496-0.457,2.975-0.912,4.591-1.394
				c0.4-0.114,0.869-0.229,1.279-0.33c-0.59,0.202-1.202,0.399-1.824,0.594c-0.619,0.139-1.206,0.282-1.67,0.483
				c-0.109,0.041-0.216,0.084-0.328,0.126c0.674-0.203,1.342-0.403,1.998-0.609c0.364-0.082,0.737-0.161,1.1-0.249
				c-0.007,0.003-0.012,0.005-0.021,0.009c-0.281,0.089-0.563,0.179-0.85,0.271c-0.549,0.122-1.074,0.25-1.509,0.418
				c-0.054,0.021-0.107,0.041-0.158,0.064c-0.109,0.043-0.219,0.085-0.328,0.125c0.417-0.124,0.828-0.249,1.237-0.374
				c0.254-0.078,0.507-0.155,0.758-0.233c0.161-0.037,0.324-0.071,0.488-0.109c-0.017,0.01-0.033,0.018-0.05,0.025
				c-0.137,0.053-0.485,0.338-0.262,0.336c0.545-0.136,1.193-0.314,1.704-0.459c0.258-0.073,0.482-0.136,0.64-0.18
				c0.08-0.021,0.143-0.038,0.188-0.05c0.043-0.012,0.066-0.018,0.067-0.016c0.086,0.049-1.758,0.589-1.682,0.588
				c0.106-0.019,0.213-0.038,0.316-0.058c-0.096,0.036-0.189,0.074-0.275,0.112c-0.208,0.068-0.495,0.119-0.627,0.187
				c-0.472,0.219-1.043,0.324-1.594,0.528c-0.341,0.133-0.749,0.303-1.158,0.472c0.008,0.032-0.209,0.067-0.13,0.083
				c-0.398,0.096-0.859,0.209-1.008,0.346c-0.009,0.005-0.018,0.007-0.027,0.01c-0.03,0.006-0.067,0.022-0.107,0.039
				c-0.667,0.146-1.109,0.349-1.696,0.559c-0.205,0.059-0.414,0.115-0.631,0.169c0.142-0.036,0.357-0.07,0.495-0.121
				c0.047-0.017,0.092-0.031,0.136-0.048c0.53-0.154,1.032-0.319,1.533-0.48c0.04-0.02,0.104-0.052,0.163-0.078
				c0.035-0.008,0.074-0.016,0.11-0.023c0.009-0.008,0.016-0.018,0.024-0.025c0.478-0.166,1.025-0.317,1.429-0.466
				c0.772-0.247,1.612-0.425,2.416-0.61c-0.393,0.125-0.778,0.25-1.154,0.375c0.477-0.146,0.923-0.284,1.358-0.422
				c0.066-0.017,0.136-0.034,0.203-0.049l0.425-0.104c-0.136,0.026-0.269,0.053-0.399,0.078c0.258-0.082,0.515-0.165,0.767-0.249
				c1.399-0.422,2.851-0.819,4.292-1.145c-0.023,0.026-0.05,0.055-0.082,0.083c-0.689,0.179-1.38,0.347-1.925,0.571
				c0.399-0.097,0.668-0.192,1.052-0.29c0.002,0.01,0.01,0.021-0.021,0.036c0.243-0.079,0.525-0.166,0.806-0.24
				c-0.08,0.064-0.171,0.13-0.261,0.197c-0.134,0.066-0.345,0.118-0.555,0.186c-0.91,0.253-1.776,0.454-2.669,0.715
				c-0.807,0.191-1.612,0.381-2.4,0.576C71.509,12.949,72.217,12.728,72.904,12.497z M49.297,18.709
				c0.07-0.025,0.146-0.051,0.216-0.078c-0.011-0.001-0.023-0.001-0.036-0.003C49.408,18.645,49.345,18.678,49.297,18.709z
				 M50.954,18.321c-0.493,0.09-1.121,0.282-1.734,0.458c-0.001,0.007-0.002,0.012-0.001,0.016
				C49.74,18.684,50.367,18.489,50.954,18.321z M52.972,18.186c-0.002,0-0.007,0-0.011-0.003c0,0.003,0.002,0.005,0.002,0.008
				C52.968,18.188,52.971,18.187,52.972,18.186z M61.46,15.566c-0.548,0.221-1.255,0.392-1.953,0.597
				c-0.212,0.052-0.407,0.167-0.69,0.236c-0.35,0.104-0.553,0.188-0.832,0.273l0.221-0.021c-0.499,0.105-0.76,0.271-1.262,0.359
				c0.008,0.017-0.058,0.065-0.128,0.083c-0.349,0.104-0.711,0.157-0.985,0.258c-0.349,0.104-0.701,0.189-0.979,0.29
				c-0.07,0.018-0.199,0.103-0.336,0.151c-0.172,0.048-0.345,0.095-0.515,0.143c0.008,0.002,0.017,0.004,0.024,0.008
				c0.141-0.034,0.282-0.071,0.421-0.116c0.417-0.136,0.903-0.29,1.324-0.409c1.053-0.292,2.024-0.599,3-0.904
				c0.205-0.068,0.412-0.152,0.618-0.221c0.623-0.219,1.403-0.394,1.798-0.61C61.253,15.65,61.395,15.616,61.46,15.566z
				 M62.076,14.669c-0.729,0.251-1.546,0.484-2.251,0.642c-0.567,0.14-2.17,0.632-1.84,0.759
				C58.6,15.544,62.658,14.921,62.076,14.669z M67.899,12.932c-0.293,0.099-0.572,0.191-0.907,0.273
				C67.293,13.114,67.597,13.023,67.899,12.932z M65.049,14.327c0.891-0.336,1.877-0.595,2.779-0.885
				c0.693-0.221,1.491-0.329,2.1-0.597l-0.012-0.049L69.85,12.83c-0.25,0.051-0.456,0.074-0.669,0.11
				c0.013-0.004,0.025-0.009,0.036-0.014c-0.021,0.008-0.041,0.013-0.062,0.019c-0.142,0.026-0.287,0.059-0.448,0.112
				c-0.074,0.025-0.15,0.052-0.226,0.079c-0.877,0.243-1.783,0.491-2.558,0.788c-0.482,0.169-0.888,0.354-1.369,0.525
				C64.696,14.415,64.912,14.38,65.049,14.327z"/>
			<path fill="#F4A417" d="M71.591,12.777c0.3-0.095,0.603-0.188,0.909-0.28c0.234-0.078,0.468-0.159,0.699-0.24
				c1.113-0.363,2.444-0.658,3.656-0.993c0.022-0.057,0.014-0.106-0.04-0.147c-1.338,0.271-2.64,0.68-3.968,0.977
				c-0.01,0.003-0.021,0.006-0.031,0.013c-0.541,0.234-1.467,0.428-2.155,0.681c-0.684,0.27-1.38,0.475-2.067,0.729
				C69.614,13.267,70.576,12.994,71.591,12.777z"/>
			<path fill="#F4A417" d="M63.537,15.56c0.274-0.077,0.551-0.156,0.828-0.234c0.771-0.229,1.451-0.446,2.145-0.679
				c-0.519,0.136-1.039,0.27-1.564,0.397C64.421,15.19,63.994,15.382,63.537,15.56z"/>
			<path fill="#F4A417" d="M67.071,14.459c-0.188,0.063-0.376,0.126-0.562,0.188c0.767-0.199,1.527-0.407,2.285-0.613
				c1.238-0.373,2.479-0.736,3.713-1.127c0.141-0.044,0.281-0.086,0.42-0.126c-2.34,0.552-4.671,1.102-6.603,1.789
				c-0.036,0.012-0.075,0.027-0.113,0.041c0.94-0.241,1.868-0.493,2.792-0.746C68.357,14.059,67.715,14.253,67.071,14.459z"/>
			<path fill="#F4A417" d="M71.301,12.868c0.068-0.016,0.136-0.03,0.204-0.047c0.077-0.025,0.152-0.05,0.229-0.075
				c-0.048,0.01-0.096,0.021-0.143,0.031C71.493,12.809,71.397,12.838,71.301,12.868z"/>
			<path fill="#F4A417" d="M69.181,12.94c-0.007,0.002-0.017,0.003-0.025,0.005c-0.223,0.063-0.446,0.126-0.674,0.191
				c-0.311,0.106-0.634,0.21-0.966,0.313C68.121,13.283,68.723,13.114,69.181,12.94z"/>
			<path fill="#F4A417" d="M67.126,13.03c-0.068,0.019-0.21,0.051-0.281,0.067c-0.04,0.021-0.081,0.042-0.122,0.062
				c0.068-0.014,0.135-0.031,0.202-0.046L67.126,13.03z"/>
			<path fill="#F4A417" d="M63.021,14.312c1.235-0.37,2.396-0.724,3.542-1.073c0.054-0.026,0.107-0.053,0.16-0.079
				c-0.781,0.181-1.555,0.393-2.249,0.656c-0.136,0.051-0.336,0.151-0.479,0.186c-0.666,0.178-1.288,0.386-1.911,0.587
				c0.297-0.089,0.602-0.178,0.911-0.271C63.004,14.315,63.012,14.313,63.021,14.312z"/>
		</g>
	</g>
	<g>
		<g>
			<path fill="#10529B" d="M13.335,8.048l-1.216,0.71V6.087L10.141,6.26v16.926l1.979-0.175V10.076
				c0.218,0.626,0.406,1.286,0.563,1.981l1.836-0.966C14.19,9.962,13.796,8.947,13.335,8.048z"/>
			<path fill="#10529B" d="M14.518,22.802l2.015-0.177v-2.487l5.484-0.479c-0.086,0.384-0.34,0.597-0.764,0.634
				c-0.497,0.043-1.054,0.042-1.67-0.001l0.453,2.026l1.217-0.104c1.89-0.166,2.833-1.029,2.833-2.591v-6.44l-9.568,0.837V22.802z
				 M16.532,15.746l5.521-0.483v0.44l-5.521,0.482V15.746z M16.532,17.941l5.521-0.482v0.421l-5.521,0.482V17.941z"/>
			<path fill="#10529B" d="M7.543,14.849l1.672,0.713c0.423-1.695,0.689-3.523,0.798-5.485l-1.67-0.273
				C8.222,11.447,7.955,13.13,7.543,14.849z"/>
			<path fill="#10529B" d="M20.236,11.178l-0.001-0.513l3.651-0.319V8.515l-3.65,0.32L20.235,8.23l4.378-0.382V6.895h-0.002h0.001
				c-0.001-0.525-0.423-0.913-0.943-0.866l-1.948,0.169l0,0l-1.484,0.132l-0.001-0.952L18.13,5.561v0.951l-4.121,0.36l-0.001,1.903
				l4.122-0.36v0.604l-3.396,0.297l-0.001,1.83l3.396-0.296v0.512l-4.267,0.374v1.901l10.968-0.96v-1.902L20.236,11.178z"/>
		</g>
		<g>
			<path fill="#10529B" d="M39.939,18.364c-2.492,0.22-4.486,0.318-5.974,0.303c-0.908-0.019-1.719-0.174-2.434-0.465v-3.185
				l1.598-0.139v-1.848l-1.599,0.14l0.001-1.684l1.797-0.157V9.52l-2.015,0.177V7.938l1.67-0.146V5.944l-1.67,0.146V4.407
				l-1.889,0.165v1.684l-1.725,0.149v1.849l1.725-0.15V9.86l-2.252,0.197v1.811l2.47-0.216v5.288
				c-0.157-0.155-0.314-0.332-0.472-0.526c0.072-1.02,0.108-2.149,0.108-3.395l-1.798,0.156c-0.035,1.956-0.133,3.521-0.289,4.693
				c-0.158,1.074-0.382,2.028-0.673,2.857l1.688,0.877c0.278-0.816,0.497-1.732,0.654-2.747c0.436,0.402,0.906,0.745,1.41,1.03
				c0.887,0.447,1.937,0.701,3.147,0.768c1.488,0.102,3.661,0.025,6.518-0.224l3.56-0.311l0.655-2.328
				C42.955,18.032,41.55,18.224,39.939,18.364z"/>
			<path fill="#10529B" d="M33.638,15.512c-0.326,0.065-0.672,0.139-1.034,0.219l0.309,1.784c1.367-0.326,2.651-0.682,3.85-1.068
				v1.921l1.798-0.156v-1.813l0.744,1.363c0.884-0.675,1.671-1.694,2.36-3.061c0.34,0.581,0.66,1.193,0.962,1.837l1.454-1.609
				c-0.46-0.84-0.957-1.667-1.488-2.486c0.435-1.32,0.815-2.993,1.143-5.022v-0.42l-0.001-0.003l0,0c0-0.521-0.42-0.91-0.937-0.867
				l0,0h-0.004h-0.002L40.843,6.3l0,0l-1.92,0.168l0.001,1.812l2.85-0.249c-0.133,0.901-0.297,1.739-0.49,2.512
				c-0.363-0.492-0.757-0.987-1.182-1.489l-1.396,1.239c0.642,0.799,1.252,1.647,1.833,2.549c-0.52,1.276-1.181,2.281-1.979,3.009
				V5.97l1.181-0.104V5.003l0,0c0-0.524-0.422-0.912-0.943-0.868L36.85,4.306v0.001l-3.72,0.325v1.813l0.508-0.045V15.512z
				 M35.455,6.24l1.308-0.113v1.608l-1.308,0.115V6.24z M35.455,9.681l1.307-0.115v1.776l-1.307,0.113V9.681z M35.455,13.266
				l1.307-0.114v1.52c-0.411,0.122-0.847,0.245-1.307,0.372V13.266z"/>
		</g>
		<path fill="#10529B" d="M51.533,34.193c-0.727-0.766-1.332-1.676-1.815-2.731l6.592-0.577l0.001-2.142l-6.738,0.59
			c0.025-0.49,0.037-1.631,0.035-3.425l5.977-0.522l-0.002-1.19v-0.001c-0.001-0.522-0.42-0.911-0.939-0.867l0,0H54.64l-1.949,0.171
			l-10.855,0.949v2.141l5.594-0.488c0.001,1.901-0.017,2.902-0.054,3.006c0,0.145-0.006,0.287-0.019,0.421l-6.319,0.553v2.142
			l6.083-0.531c-0.241,1.19-0.702,2.231-1.379,3.12c-1.137,1.479-2.846,2.727-5.121,3.743l0.944,1.966
			c2.492-1.084,4.449-2.488,5.865-4.208c0.544-0.695,0.986-1.46,1.326-2.295c0.593,1.144,1.324,2.099,2.195,2.864
			c1.066,1.005,2.61,1.905,4.633,2.705l1.307-2.182C54.554,36.691,52.769,35.622,51.533,34.193z"/>
		<g>
			<path fill="#10529B" d="M68.984,35.118l5.685-0.496v-2.068l-5.685,0.498v-0.86l4.431-0.389v-4.412l0,0
				c-0.001-0.521-0.422-0.907-0.939-0.866v-0.001l-10.083,0.883l0.002,5.361l4.5-0.395l0.001,0.86l-5.899,0.517v2.067l5.899-0.517
				l-0.001,0.951l-6.971,0.61v2.05l15.962-1.396v-2.049l-6.901,0.604V35.118z M64.5,30.589v-1.371l6.81-0.597l-0.001,1.372
				L64.5,30.589z"/>
			<path fill="#10529B" d="M76.12,24.296c0-0.521-0.422-0.91-0.942-0.864l-1.947,0.171v0.003l-0.541,0.047
				c0.374-0.559,0.744-1.176,1.106-1.854l-2.414-0.447c-0.352,0.873-0.763,1.714-1.235,2.524l-1.234,0.107v-2.562l-2.088,0.183
				v2.562l-2.233,0.195l0.854-0.568c-0.425-0.634-0.957-1.229-1.599-1.782l-1.905,1.356c0.423,0.364,0.793,0.743,1.107,1.129
				l-3.358,0.293v4.118l2.105-0.186v-2.065l12.22-1.07v2.068l2.105-0.186V24.296L76.12,24.296z"/>
		</g>
		<g>
			<path fill="#10529B" d="M25.818,28.484l2.127-0.186l-0.001-0.805l3.468-0.305v0.806l2.105-0.185v-0.805l3.995-0.35V25.85l0,0l0,0
				c0-0.525-0.422-0.913-0.942-0.868l-1.947,0.171l-1.104,0.096l-0.001-0.731l-2.105,0.186l-0.001,0.73l-3.467,0.303v-0.73
				l-2.125,0.187v0.731l-4.194,0.366v1.758l4.193-0.367V28.484z"/>
			<path fill="#10529B" d="M37.823,33.522c-0.002-0.521-0.42-0.907-0.938-0.865l0,0l-0.007,0.001l-1.946,0.17l-13.544,1.185v3.13
				l2.034-0.178l0.001-1.318l3.557-0.311c-0.373,0.301-0.816,0.602-1.324,0.902c-1.126,0.696-2.204,1.235-3.232,1.618l0.999,1.742
				c0.473-0.199,0.992-0.459,1.562-0.776c0.46,0.252,0.907,0.536,1.344,0.852c-1.174,0.336-2.5,0.664-3.976,0.989l0.799,1.759
				c3.123-0.759,5.695-1.571,7.715-2.432c1.89-0.787,3.355-1.721,4.396-2.8v-1.775l-6.52,0.571c0.266-0.268,0.533-0.56,0.799-0.875
				l6.246-0.548v1.319l2.035-0.179V33.522L37.823,33.522z M32.138,37.392c-0.604,0.369-1.374,0.747-2.306,1.135
				c-0.266,0.108-0.568,0.221-0.908,0.336c-0.471-0.361-1.005-0.712-1.597-1.05L32.138,37.392z"/>
			<path fill="#10529B" d="M35.699,27.856L35.699,27.856l-1.948,0.17l-11.254,0.985v4.538l14.145-1.238l-0.001-3.583l-0.003-0.003
				h0.003C36.641,28.2,36.219,27.813,35.699,27.856z M26.546,31.422l-2.106,0.185v-1.008l2.106-0.185V31.422z M30.703,31.057
				l-2.269,0.198V30.25l2.269-0.198V31.057z M34.698,30.708l-2.104,0.184v-1.006l2.104-0.184V30.708z"/>
		</g>
	</g>
</g>
</svg>
